# Blender 4.3.2
# www.blender.org
mtllib Knight.mtl
o Knight
v 0.183813 0.003109 -0.000000
v -0.186905 0.003109 -0.000000
v 0.198666 0.058118 -0.000000
v -0.198229 0.058118 -0.000000
v 0.182235 0.065986 -0.000000
v -0.182235 0.065986 -0.000000
v 0.199025 0.128179 -0.000000
v -0.199025 0.128179 -0.000000
v 0.140773 0.163528 -0.000000
v -0.140773 0.163528 -0.000000
v 0.185222 0.306797 -0.000000
v 0.207387 0.525549 -0.000000
v 0.111905 0.756348 -0.000000
v -0.052683 0.541374 -0.000000
v -0.125284 0.714740 -0.000000
v -0.064937 0.785515 -0.000000
v -0.229438 0.649522 -0.000000
v -0.162483 0.532669 -0.000000
v 0.158598 0.245605 -0.000000
v -0.158598 0.245605 -0.000000
v 0.191068 0.648757 -0.000000
v 0.194403 0.415944 -0.000000
v -0.011705 0.795737 -0.000000
v -0.127464 0.552715 -0.000000
v -0.212854 0.585327 -0.000000
v -0.125167 0.199208 -0.000000
v 0.125167 0.199208 -0.000000
v 0.107187 0.272330 -0.000000
v -0.108099 0.272330 -0.000000
v 0.127927 0.223522 -0.000000
v -0.127927 0.223522 -0.000000
v -0.132614 0.003109 0.136319
v -0.001546 0.003109 0.190609
v 0.129523 0.003109 0.136319
v -0.140105 0.058118 0.139610
v 0.140543 0.058118 0.139610
v 0.000219 0.058118 0.197734
v -0.128860 0.065986 0.128855
v 0.128860 0.065986 0.128855
v 0.000000 0.065986 0.182231
v -0.140732 0.128179 0.140727
v 0.000000 0.128179 0.199020
v 0.140732 0.128179 0.140727
v -0.099542 0.163528 0.114104
v 0.099542 0.163528 0.114104
v 0.000000 0.163528 0.152950
v -0.198729 0.306797 0.035161
v 0.022049 0.306797 0.149925
v 0.129191 0.306797 0.119621
v -0.011688 0.532946 0.055471
v 0.070782 0.524261 0.077189
v 0.179032 0.525442 0.054113
v -0.050717 0.543374 0.050883
v 0.019566 0.682178 0.078198
v -0.023042 0.627837 0.074127
v -0.160852 0.534719 0.041108
v -0.125432 0.714028 0.057861
v -0.059246 0.778709 0.059538
v -0.223747 0.648497 0.040235
v -0.112146 0.245605 0.105973
v 0.112146 0.245605 0.105973
v 0.000000 0.245605 0.152425
v 0.162416 0.645083 0.060443
v 0.081147 0.615651 0.075750
v -0.119363 0.419742 0.042283
v 0.162160 0.416451 0.061182
v 0.030375 0.414869 0.097811
v 0.089214 0.756348 0.078163
v -0.009480 0.792187 0.065189
v 0.040783 0.827098 0.042949
v 0.033874 0.825051 0.077872
v -0.016440 0.841711 0.063467
v -0.014827 0.842403 0.047106
v 0.015414 0.763467 0.072181
v -0.113969 0.654797 0.063297
v -0.125833 0.554765 0.041210
v -0.067800 0.696603 0.067263
v -0.116925 0.306720 0.130314
v -0.054702 0.580097 0.065378
v -0.209194 0.585840 0.042297
v -0.006899 0.581256 0.066927
v -0.073733 0.418107 0.070939
v -0.136891 0.606964 0.059692
v 0.000000 0.199208 0.129985
v 0.088506 0.199208 0.093845
v -0.088506 0.199208 0.093845
v 0.009451 0.272330 0.111161
v 0.075834 0.272330 0.090180
v -0.076282 0.271676 0.087891
v 0.000000 0.223523 0.128291
v -0.090458 0.223522 0.090822
v 0.090458 0.223522 0.090822
v 0.125673 -0.000692 0.132231
v -0.001546 -0.000692 0.184926
v -0.128764 -0.000692 0.132231
v -0.181460 -0.000692 0.000000
v 0.178368 -0.000692 0.000000
v -0.119363 0.419742 -0.000000
v -0.198729 0.306797 -0.000000
v -0.025887 0.526218 -0.000000
v 0.189812 0.361371 -0.000000
v -0.161945 0.363270 0.038722
v 0.145676 0.361624 0.086193
v 0.022024 0.360815 0.116480
v -0.103555 0.361270 0.093346
v -0.161945 0.363270 -0.000000
v 0.153334 0.233114 -0.000000
v -0.153334 0.233114 -0.000000
v 0.000000 0.233114 0.150294
v -0.108424 0.233114 0.105383
v 0.108424 0.233114 0.105383
v 0.192510 0.079452 -0.000000
v -0.192510 0.079452 -0.000000
v 0.136125 0.079452 0.136120
v 0.000000 0.079452 0.192505
v -0.136125 0.079452 0.136120
v 0.193763 0.020038 -0.000000
v -0.196572 0.020038 -0.000000
v -0.001404 0.020038 0.195851
v -0.139409 0.020038 0.138688
v 0.136600 0.020038 0.138688
v -0.169167 0.058118 0.069450
v -0.159760 0.003109 0.070668
v -0.155548 0.065986 0.064427
v -0.169879 0.128179 0.070364
v -0.120158 0.163528 0.057052
v -0.135372 0.245605 0.052986
v -0.106836 0.199208 0.046923
v -0.092190 0.272003 0.043945
v -0.109193 0.223522 0.045411
v -0.155112 -0.000692 0.068624
v -0.130879 0.233114 0.052691
v -0.164318 0.079452 0.068060
v -0.167991 0.020038 0.071566
v 0.178055 0.297901 -0.000000
v 0.019777 0.297901 0.146282
v 0.124191 0.297901 0.116194
v -0.115575 0.297693 0.124675
v -0.191149 0.297901 -0.000000
v -0.187652 0.297829 0.035034
v -0.132614 0.003109 -0.136319
v -0.001546 0.003109 -0.190609
v 0.129523 0.003109 -0.136319
v -0.140105 0.058118 -0.139610
v 0.140543 0.058118 -0.139610
v 0.000219 0.058118 -0.197734
v -0.128860 0.065986 -0.128855
v 0.128860 0.065986 -0.128855
v 0.000000 0.065986 -0.182231
v -0.140732 0.128179 -0.140727
v 0.000000 0.128179 -0.199021
v 0.140732 0.128179 -0.140727
v -0.099542 0.163528 -0.114105
v 0.099542 0.163528 -0.114105
v 0.000000 0.163528 -0.152950
v -0.198729 0.306797 -0.035161
v 0.022049 0.306797 -0.149925
v 0.129191 0.306797 -0.119621
v -0.011688 0.532946 -0.055471
v 0.070782 0.524261 -0.077189
v 0.179032 0.525442 -0.054113
v -0.050717 0.543374 -0.050883
v 0.019566 0.682178 -0.078198
v -0.023042 0.627837 -0.074127
v -0.160852 0.534719 -0.041109
v -0.125432 0.714028 -0.057861
v -0.059246 0.778709 -0.059538
v -0.223747 0.648497 -0.040235
v -0.112146 0.245605 -0.105973
v 0.112146 0.245605 -0.105973
v 0.000000 0.245605 -0.152425
v 0.162416 0.645083 -0.060443
v 0.081147 0.615651 -0.075750
v -0.119363 0.419742 -0.042284
v 0.162160 0.416451 -0.061182
v 0.030375 0.414869 -0.097811
v 0.089214 0.756348 -0.078164
v -0.009480 0.792187 -0.065190
v 0.040783 0.827098 -0.042950
v 0.033874 0.825051 -0.077872
v -0.016440 0.841711 -0.063467
v -0.014827 0.842403 -0.047106
v 0.015414 0.763467 -0.072181
v -0.113969 0.654797 -0.063297
v -0.125833 0.554765 -0.041210
v -0.067800 0.696603 -0.067264
v -0.116925 0.306720 -0.130314
v -0.054702 0.580097 -0.065378
v -0.209194 0.585840 -0.042297
v -0.006899 0.581256 -0.066927
v -0.073733 0.418107 -0.070939
v -0.136891 0.606964 -0.059693
v 0.000000 0.199208 -0.129985
v 0.088506 0.199208 -0.093846
v -0.088506 0.199208 -0.093846
v 0.009451 0.272330 -0.111162
v 0.075834 0.272330 -0.090180
v -0.076282 0.271676 -0.087891
v 0.000000 0.223522 -0.128292
v -0.090458 0.223522 -0.090823
v 0.090458 0.223522 -0.090823
v 0.125673 -0.000692 -0.132231
v -0.001546 -0.000692 -0.184926
v -0.128764 -0.000692 -0.132231
v -0.161945 0.363270 -0.038722
v 0.145676 0.361624 -0.086193
v 0.022024 0.360815 -0.116480
v -0.103555 0.361270 -0.093346
v 0.000000 0.233114 -0.150294
v -0.108424 0.233114 -0.105383
v 0.108424 0.233114 -0.105383
v 0.136125 0.079451 -0.136120
v 0.000000 0.079451 -0.192505
v -0.136125 0.079451 -0.136120
v -0.001404 0.020038 -0.195851
v -0.139409 0.020038 -0.138688
v 0.136600 0.020038 -0.138688
v -0.169167 0.058118 -0.069450
v -0.159760 0.003109 -0.070668
v -0.155548 0.065986 -0.064428
v -0.169879 0.128179 -0.070364
v -0.120158 0.163528 -0.057052
v -0.135372 0.245605 -0.052987
v -0.106836 0.199208 -0.046923
v -0.092190 0.272003 -0.043946
v -0.109193 0.223522 -0.045411
v -0.155112 -0.000692 -0.068624
v -0.130879 0.233114 -0.052692
v -0.164318 0.079451 -0.068060
v -0.167991 0.020038 -0.071566
v 0.019777 0.297901 -0.146282
v 0.124191 0.297901 -0.116194
v -0.115575 0.297693 -0.124675
v -0.187652 0.297829 -0.035035
vn -0.8454 0.4095 0.3429
vn -0.9242 0.3820 -0.0000
vn -0.9322 -0.3619 -0.0000
vn -0.8619 -0.3602 0.3570
vn -0.8187 0.5743 -0.0000
vn -0.7591 0.5563 0.3382
vn -0.7041 0.5847 0.4031
vn -0.7698 0.6383 -0.0000
vn 0.9037 0.4283 -0.0000
vn 0.9568 0.2907 -0.0000
vn 0.6739 0.2849 0.6817
vn 0.6432 0.4362 0.6293
vn 0.0072 0.4516 0.8922
vn -0.0017 0.2782 0.9605
vn -0.6258 0.4630 0.6277
vn -0.6771 0.2790 0.6809
vn -0.0047 -0.1687 0.9857
vn -0.7036 -0.1942 0.6835
vn 0.6932 -0.2397 0.6797
vn 0.9579 -0.2869 -0.0000
vn -0.9013 -0.2267 0.3692
vn -0.7994 0.5038 0.3275
vn -0.8853 0.4650 -0.0000
vn -0.9698 -0.2440 -0.0000
vn -0.0000 -0.3618 0.9322
vn -0.0000 0.3381 0.9411
vn -0.6684 0.3596 0.6511
vn -0.6592 -0.3618 0.6592
vn 0.9266 0.3761 -0.0000
vn 0.6664 0.3630 0.6512
vn 0.6592 -0.3618 0.6592
vn 0.9322 -0.3619 -0.0000
vn -0.8993 0.2287 0.3728
vn -0.9589 0.2839 -0.0000
vn -0.0000 0.6965 0.7175
vn -0.4820 0.7045 0.5210
vn -0.7182 0.6399 0.2734
vn 0.7217 0.6922 -0.0000
vn 0.4809 0.7051 0.5211
vn 0.9953 -0.0969 -0.0000
vn 1.0000 0.0019 -0.0000
vn 0.6437 0.0113 0.7652
vn 0.6533 0.0328 0.7564
vn -0.3694 0.3847 0.8459
vn 0.0005 0.2796 0.9601
vn 0.0295 0.0588 0.9978
vn -0.4155 -0.0369 0.9088
vn 0.9413 0.3376 -0.0000
vn 0.7556 0.6550 -0.0000
vn 0.4888 0.3638 0.7929
vn 0.6272 0.2114 0.7496
vn -0.0904 -0.1424 0.9857
vn 0.0677 -0.0421 0.9968
vn -0.0281 -0.0019 0.9996
vn -0.0728 -0.0645 0.9953
vn -0.2371 -0.7479 0.6200
vn -0.2613 -0.9653 -0.0000
vn -0.9834 -0.1817 -0.0000
vn -0.1182 -0.2297 0.9661
vn -0.4109 0.6625 0.6263
vn -0.5020 0.2627 0.8240
vn -0.3033 0.9529 -0.0000
vn -0.5061 0.8625 -0.0000
vn -0.1555 -0.1314 0.9791
vn -0.1606 0.0080 0.9870
vn -0.7756 0.3020 0.5543
vn -0.6766 -0.3799 0.6308
vn -0.1366 0.0379 0.9899
vn -0.5044 0.5059 0.6997
vn -0.1323 0.0635 0.9892
vn 0.0034 -0.7504 0.6609
vn -0.1342 -0.8307 0.5404
vn -0.1565 -0.9877 -0.0000
vn 0.1921 -0.9814 -0.0000
vn -0.6435 0.7654 -0.0000
vn -0.9329 0.3600 -0.0000
vn -0.8799 -0.4752 -0.0000
vn 0.5387 -0.6083 0.5829
vn 0.6941 0.3188 0.6455
vn -0.0099 0.3338 0.9426
vn -0.0000 -0.5655 0.8247
vn -0.6718 -0.6812 0.2909
vn -0.5426 -0.6026 0.5852
vn -0.6902 0.3313 0.6433
vn -0.8653 0.3414 0.3671
vn 0.7581 -0.6521 -0.0000
vn 0.9534 0.3018 -0.0000
vn 0.6394 0.1825 0.7469
vn 0.0260 0.4547 0.8903
vn -0.4099 0.4925 0.7677
vn 0.9983 -0.0591 -0.0000
vn 0.4768 0.8425 -0.2509
vn 0.2655 0.5888 0.7634
vn -0.5530 0.7909 -0.2619
vn -0.5948 0.6175 0.5146
vn -0.0000 0.3484 0.9373
vn -0.6868 0.2899 0.6665
vn 0.9803 0.1975 -0.0000
vn 0.6893 0.2808 0.6678
vn -0.9174 0.1768 0.3565
vn 0.0401 -0.6511 0.7579
vn -0.3544 -0.7301 0.5842
vn -0.5572 -0.0717 0.8273
vn 0.0431 -0.0406 0.9982
vn 0.5865 -0.0868 0.8053
vn 0.4397 -0.7191 0.5381
vn -0.9085 -0.0985 0.4062
vn 0.9960 -0.0891 -0.0000
vn 0.6431 -0.7658 -0.0000
vn -0.5260 -0.8161 0.2396
vn -0.0000 -0.5886 0.8085
vn -0.5596 -0.6243 0.5450
vn 0.7450 -0.6671 -0.0000
vn 0.5564 -0.6290 0.5429
vn -0.7527 -0.5828 0.3062
vn 0.5473 -0.5973 0.5863
vn -0.0012 -0.5614 0.8275
vn -0.0000 -0.9353 0.3539
vn 0.2582 -0.9335 0.2490
vn -0.7187 -0.6318 0.2902
vn -0.7688 -0.6395 -0.0000
vn -0.3611 -0.9325 -0.0000
vn -0.2951 -0.9482 0.1176
vn 0.7713 -0.6365 -0.0000
vn 0.3620 -0.9322 -0.0000
vn -0.5508 -0.5879 0.5925
vn -0.2553 -0.9338 0.2506
vn 0.9478 -0.3189 -0.0000
vn 0.5938 -0.1032 0.7980
vn -0.4486 -0.0053 0.8937
vn 0.0717 0.0374 0.9967
vn -0.9934 -0.1145 -0.0000
vn -0.9444 -0.0770 0.3196
vn -0.7377 -0.6752 -0.0000
vn -0.7484 -0.6633 -0.0000
vn -0.9839 0.1788 -0.0000
vn -0.5110 -0.8596 -0.0000
vn -0.9546 0.2979 -0.0000
vn -0.9890 -0.1480 -0.0000
vn -0.7212 0.6928 -0.0000
vn -0.8454 0.4095 -0.3429
vn -0.8619 -0.3602 -0.3570
vn -0.7041 0.5846 -0.4031
vn -0.7591 0.5563 -0.3382
vn 0.6432 0.4362 -0.6293
vn 0.6739 0.2848 -0.6817
vn 0.0072 0.4516 -0.8922
vn -0.0017 0.2782 -0.9605
vn -0.6258 0.4630 -0.6277
vn -0.6772 0.2790 -0.6809
vn -0.0047 -0.1687 -0.9857
vn -0.7036 -0.1942 -0.6835
vn 0.6932 -0.2397 -0.6797
vn -0.9017 -0.2298 -0.3662
vn -0.7995 0.5007 -0.3317
vn -0.0000 -0.3619 -0.9322
vn -0.6592 -0.3619 -0.6592
vn -0.6684 0.3596 -0.6511
vn -0.0000 0.3381 -0.9411
vn 0.6592 -0.3619 -0.6592
vn 0.6664 0.3630 -0.6512
vn -0.8993 0.2287 -0.3728
vn -0.4820 0.7045 -0.5210
vn -0.0000 0.6965 -0.7175
vn -0.7182 0.6399 -0.2734
vn 0.4809 0.7051 -0.5211
vn 0.6533 0.0328 -0.7564
vn 0.6437 0.0113 -0.7652
vn -0.3694 0.3847 -0.8459
vn -0.4155 -0.0369 -0.9088
vn 0.0295 0.0588 -0.9978
vn 0.0005 0.2796 -0.9601
vn 0.6272 0.2114 -0.7496
vn 0.4888 0.3638 -0.7929
vn -0.0904 -0.1424 -0.9857
vn -0.0728 -0.0645 -0.9953
vn -0.0281 -0.0019 -0.9996
vn 0.0677 -0.0421 -0.9968
vn -0.2371 -0.7479 -0.6200
vn -0.1182 -0.2297 -0.9661
vn -0.4155 0.6630 -0.6227
vn -0.5020 0.2627 -0.8240
vn -0.1555 -0.1314 -0.9791
vn -0.6766 -0.3799 -0.6308
vn -0.7756 0.3020 -0.5543
vn -0.1606 0.0080 -0.9870
vn -0.1362 0.0362 -0.9900
vn -0.1323 0.0635 -0.9892
vn -0.5044 0.5059 -0.6997
vn 0.0034 -0.7504 -0.6609
vn -0.1342 -0.8307 -0.5404
vn 0.5387 -0.6083 -0.5829
vn -0.0000 -0.5655 -0.8247
vn -0.0099 0.3338 -0.9426
vn 0.6941 0.3188 -0.6455
vn -0.6747 -0.6792 -0.2889
vn -0.8653 0.3414 -0.3671
vn -0.6902 0.3313 -0.6433
vn -0.5426 -0.6026 -0.5852
vn 0.6394 0.1825 -0.7469
vn 0.0260 0.4547 -0.8903
vn -0.4099 0.4925 -0.7677
vn 0.2655 0.5888 -0.7634
vn 0.4768 0.8425 0.2509
vn -0.5530 0.7909 0.2619
vn -0.5948 0.6175 -0.5146
vn -0.6868 0.2899 -0.6665
vn -0.0000 0.3484 -0.9374
vn 0.6893 0.2808 -0.6678
vn -0.9174 0.1768 -0.3565
vn 0.0401 -0.6511 -0.7579
vn 0.0431 -0.0406 -0.9982
vn -0.5572 -0.0717 -0.8273
vn -0.3544 -0.7301 -0.5842
vn 0.4397 -0.7191 -0.5381
vn 0.5865 -0.0868 -0.8053
vn -0.9085 -0.0985 -0.4062
vn -0.5260 -0.8161 -0.2396
vn -0.5596 -0.6243 -0.5451
vn -0.0000 -0.5885 -0.8085
vn 0.5564 -0.6290 -0.5429
vn -0.7531 -0.5812 -0.3083
vn 0.5473 -0.5973 -0.5863
vn 0.2582 -0.9335 -0.2490
vn -0.0000 -0.9353 -0.3539
vn -0.0012 -0.5614 -0.8275
vn -0.7187 -0.6318 -0.2902
vn -0.2951 -0.9482 -0.1176
vn -0.2553 -0.9338 -0.2506
vn -0.5508 -0.5879 -0.5925
vn 0.5938 -0.1032 -0.7980
vn -0.4486 -0.0053 -0.8937
vn 0.0717 0.0374 -0.9967
vn -0.9444 -0.0770 -0.3196
vt 0.869138 0.467577
vt 0.873576 0.520413
vt 0.836755 0.520413
vt 0.832462 0.469307
vt 0.350159 0.789585
vt 0.350159 0.760509
vt 0.385199 0.757834
vt 0.385199 0.789585
vt 0.261569 0.497076
vt 0.248908 0.501874
vt 0.178376 0.427348
vt 0.184957 0.416413
vt 0.076530 0.415644
vt 0.078808 0.426641
vt -0.000000 0.495716
vt 0.008529 0.500172
vt 0.936210 0.517429
vt 0.964765 0.516041
vt 0.965741 0.624723
vt 0.937170 0.624315
vt 0.937170 0.417804
vt 0.965741 0.414741
vt 0.902365 0.493117
vt 0.873576 0.493740
vt 0.881468 0.415016
vt 0.910126 0.414742
vt 0.469876 0.742827
vt 0.498055 0.744415
vt 0.502481 0.796565
vt 0.474228 0.796565
vt 0.814299 0.102077
vt 0.850769 0.101594
vt 0.851748 0.210592
vt 0.815245 0.207507
vt 0.207425 0.770102
vt 0.215339 0.690660
vt 0.251951 0.692535
vt 0.244296 0.769377
vt 0.000097 0.552718
vt 0.008619 0.552517
vt 0.008708 0.604863
vt 0.000000 0.609227
vt 0.851748 -0.000000
vt 0.815245 0.003809
vt 0.878079 0.104470
vt 0.878732 0.181414
vt 0.294880 0.552084
vt 0.294880 0.494916
vt 0.321086 0.502531
vt 0.323076 0.548035
vt 0.480511 0.415698
vt 0.557402 0.497222
vt 0.510750 0.514299
vt 0.452385 0.446499
vt 0.376123 0.447483
vt 0.371770 0.414742
vt 0.861528 0.850823
vt 0.859400 0.768114
vt 0.888190 0.772043
vt 0.893989 0.854826
vt 0.101500 0.101285
vt 0.180702 0.092864
vt 0.215456 0.173105
vt 0.153017 0.184367
vt 0.276871 0.087954
vt 0.294880 0.168835
vt 0.863313 0.405475
vt 0.864126 0.324463
vt 0.921030 0.304827
vt 0.906418 0.383193
vt 0.159899 0.220049
vt 0.228012 0.241026
vt 0.185775 0.293999
vt 0.150801 0.255617
vt 0.289299 0.259152
vt 0.241743 0.345906
vt 0.587434 0.387900
vt 0.590879 0.358192
vt 0.629087 0.356805
vt 0.629087 0.377546
vt 0.124062 0.221706
vt 0.300482 0.893611
vt 0.333136 0.887437
vt 0.330746 0.935980
vt 0.294880 0.937783
vt 0.063807 0.246229
vt 0.083709 0.280774
vt 0.000000 0.282268
vt 0.007624 0.234549
vt 0.186669 0.355211
vt 0.130977 0.370784
vt 0.077997 0.325838
vt 0.120661 0.309587
vt 0.598142 0.301391
vt 0.598219 0.276002
vt 0.629087 0.274868
vt 0.629087 0.300257
vt 0.967845 0.826599
vt 0.973716 0.871306
vt 0.930864 0.871306
vt 0.930363 0.827858
vt 0.211733 0.903805
vt 0.267532 0.884165
vt 0.267478 0.927370
vt 0.207425 0.933935
vt 0.734248 0.320437
vt 0.733659 0.368746
vt 0.703484 0.370965
vt 0.702498 0.321248
vt 0.279147 0.564219
vt 0.288515 0.561378
vt 0.287734 0.642336
vt 0.278393 0.642489
vt 0.264988 0.455652
vt 0.261569 0.416086
vt 0.271320 0.415644
vt 0.274857 0.455431
vt 0.294430 0.416473
vt 0.288333 0.475589
vt 0.278393 0.474708
vt 0.284700 0.415644
vt 0.279147 0.726465
vt 0.288515 0.729194
vt 0.847828 0.679339
vt 0.881076 0.685942
vt 0.263177 0.047230
vt 0.172726 0.052430
vt 0.077581 0.059806
vt 0.863144 0.891749
vt 0.909283 0.897555
vt 0.895513 0.255689
vt 0.921030 0.249687
vt 0.169197 0.378162
vt 0.858462 0.227213
vt 0.895937 0.212305
vt 0.204110 0.400241
vt 0.166556 0.415644
vt 0.817162 0.626084
vt 0.854491 0.629629
vt 0.854015 0.641908
vt 0.817162 0.675123
vt 0.124161 0.194308
vt 0.068106 0.206958
vt 0.732464 0.275514
vt 0.701577 0.274868
vt 0.040885 0.193776
vt 0.065749 0.105495
vt 0.905251 0.105877
vt 0.905858 0.174393
vt 0.492147 0.519379
vt 0.442331 0.464391
vt 0.924169 0.253432
vt 0.921030 0.210592
vt 0.945585 0.225804
vt 0.948376 0.261039
vt 0.878732 0.032459
vt 0.905858 0.041952
vt 0.804363 0.099821
vt 0.804363 0.202570
vt 0.772260 0.176738
vt 0.779370 0.110542
vt 0.755955 0.063889
vt 0.769693 0.026097
vt 0.000000 0.800062
vt -0.000000 0.756644
vt 0.022574 0.759199
vt 0.024692 0.794229
vt 0.685377 0.051373
vt 0.677162 -0.000000
vt 0.746429 0.266560
vt 0.741561 0.193738
vt 0.060020 0.691579
vt 0.071815 0.717925
vt 0.146672 0.690659
vt 0.121240 0.712883
vt 0.923532 0.105950
vt 0.924161 0.176011
vt 0.760848 0.274868
vt 0.752576 0.328093
vt 0.734248 0.327470
vt 0.742487 0.276566
vt 0.963761 0.228074
vt 0.966613 0.262174
vt 0.924161 0.040649
vt 0.635517 0.414932
vt 0.741894 0.414742
vt 0.740115 0.418624
vt 0.636862 0.418809
vt 0.817162 0.543247
vt 0.815725 0.600061
vt 0.811800 0.598441
vt 0.813205 0.543274
vt 0.558839 0.494019
vt 0.562461 0.495514
vt 0.817162 0.489915
vt 0.813172 0.491589
vt 0.207425 0.750163
vt 0.167592 0.765924
vt 0.452042 0.747932
vt 0.449257 0.789585
vt 0.030710 0.065505
vt 0.864760 0.932676
vt 0.930363 0.940284
vt 0.066970 0.018874
vt 0.171922 0.011272
vt 0.250007 0.006328
vt 0.314236 0.789585
vt 0.314236 0.763183
vt 0.750461 0.821631
vt 0.750461 0.748213
vt 0.765880 0.742263
vt 0.765880 0.830262
vt 0.698487 0.696359
vt 0.624731 0.696550
vt 0.617590 0.679339
vt 0.703583 0.680111
vt 0.724348 0.847671
vt 0.735785 0.860973
vt 0.804363 0.102749
vt 0.805259 0.202552
vt 0.805259 0.009725
vt 0.821226 0.472035
vt 0.825289 0.520413
vt 0.262882 0.698952
vt 0.255635 0.771692
vt 0.908008 0.210592
vt 0.456175 0.743501
vt 0.460308 0.796565
vt 0.916218 0.495148
vt 0.923589 0.417548
vt 0.924501 0.423274
vt 0.923589 0.517891
vt 0.924501 0.619405
vt 0.452042 0.694204
vt 0.465524 0.692425
vt 0.817162 0.423656
vt 0.828169 0.418201
vt 0.698234 0.873710
vt 0.705691 0.891684
vt 0.951167 0.296273
vt 0.969466 0.296273
vt 0.306541 0.789585
vt 0.305956 0.763278
vt -0.000000 0.843480
vt 0.026810 0.829259
vt 0.927308 0.296273
vt 0.268407 0.495218
vt 0.278393 0.495218
vt 0.294880 0.609252
vt 0.325066 0.593539
vt 0.493630 0.691733
vt 0.864700 0.414742
vt 0.000000 0.025212
vt 0.710862 0.210739
vt 0.720867 0.273305
vt 0.301723 0.691733
vt 0.294880 0.695967
vt 0.927008 0.947532
vt 0.863117 0.940219
vt 0.169522 0.004806
vt 0.245583 0.000000
vt 0.067142 0.012164
vt 0.869138 0.573249
vt 0.832462 0.571519
vt 0.385199 0.821335
vt 0.350159 0.818661
vt 0.261569 0.610587
vt 0.249086 0.606565
vt 0.185038 0.690659
vt 0.178808 0.680095
vt 0.076612 0.689890
vt 0.079239 0.679389
vt 0.937469 0.109929
vt 0.936896 0.000461
vt 0.965496 -0.000000
vt 0.966079 0.111307
vt 0.936896 0.204623
vt 0.965496 0.207592
vt 0.910126 0.605442
vt 0.881468 0.606984
vt 0.469876 0.850303
vt 0.498055 0.848715
vt 0.513229 0.802606
vt 0.512663 0.694630
vt 0.549296 0.691733
vt 0.549880 0.803364
vt 0.251951 0.879705
vt 0.215339 0.884165
vt 0.038209 0.649312
vt 0.043974 0.642126
vt 0.549296 0.899929
vt 0.512663 0.896010
vt 0.371771 0.690776
vt 0.383431 0.661339
vt 0.459693 0.660355
vt 0.480512 0.691733
vt 0.333326 0.650014
vt 0.354248 0.627439
vt 0.557402 0.611559
vt 0.514730 0.605307
vt 0.809862 0.854826
vt 0.813782 0.772043
vt 0.484778 0.100497
vt 0.435024 0.183212
vt 0.371816 0.172351
vt 0.404654 0.092572
vt 0.312089 0.086743
vt 0.294880 0.167480
vt 0.816201 0.388495
vt 0.804363 0.311684
vt 0.427490 0.219152
vt 0.436040 0.254904
vt 0.401246 0.293350
vt 0.359595 0.240253
vt 0.300087 0.257979
vt 0.346000 0.345213
vt 0.670740 0.387900
vt 0.667295 0.358192
vt 0.463019 0.220817
vt 0.300482 0.982631
vt 0.333136 0.984907
vt 0.522994 0.245295
vt 0.579693 0.233293
vt 0.587434 0.280994
vt 0.503124 0.279910
vt 0.400854 0.354453
vt 0.466369 0.308779
vt 0.509200 0.324879
vt 0.456782 0.369818
vt 0.660031 0.301391
vt 0.659955 0.276002
vt 0.967845 0.916013
vt 0.930363 0.914753
vt 0.211733 0.963964
vt 0.267532 0.970677
vt 0.670740 0.321698
vt 0.673246 0.369945
vt 0.268543 0.737891
vt 0.268993 0.663495
vt 0.278393 0.663748
vt 0.277928 0.740699
vt 0.264988 0.534784
vt 0.274857 0.535005
vt 0.271320 0.574793
vt 0.261569 0.574350
vt 0.294430 0.561378
vt 0.284700 0.561360
vt 0.268543 0.577491
vt 0.277928 0.574793
vt 0.797965 0.685942
vt 0.323866 0.046569
vt 0.411211 0.052541
vt 0.506837 0.059522
vt 0.790764 0.897555
vt 0.804798 0.256519
vt 0.831406 0.259457
vt 0.418631 0.377279
vt 0.965741 0.414742
vt 1.000000 0.484330
vt 0.998258 0.527712
vt 0.965741 0.511786
vt 0.421409 0.414742
vt 0.383289 0.399606
vt 0.854491 0.675123
vt 0.854491 0.626084
vt 0.891344 0.659300
vt 0.891820 0.671578
vt 0.463871 0.193089
vt 0.519951 0.205597
vt 0.670740 0.276739
vt 0.546845 0.192438
vt 0.522071 0.104120
vt 0.930363 0.679339
vt 0.956950 0.684822
vt 0.957312 0.754959
vt 0.930753 0.757989
vt 0.777167 0.413882
vt 0.752898 0.403664
vt 0.777167 0.323016
vt 0.924169 0.339113
vt 0.948376 0.331507
vt 0.945585 0.366741
vt 0.921030 0.381953
vt 0.930363 0.826599
vt 0.956950 0.815757
vt 0.587434 0.134510
vt 0.614523 0.136903
vt 0.641922 0.197580
vt 0.619476 0.232135
vt 0.597384 0.053651
vt 0.622223 0.085275
vt 0.030377 0.873232
vt 0.049886 0.854914
vt 0.072961 0.880568
vt 0.060753 0.902983
vt 0.676392 0.204159
vt 0.694475 0.274868
vt 0.135543 0.871429
vt 0.147404 0.902064
vt 0.172939 0.837413
vt 0.207425 0.836998
vt 0.975175 0.682946
vt 0.975551 0.754699
vt 0.734793 0.401213
vt 0.966613 0.330372
vt 0.963761 0.364471
vt 0.975175 0.816768
vt 0.557402 0.604165
vt 0.561089 0.602367
vt 0.634146 0.675332
vt 0.632669 0.679339
vt 0.776667 0.641346
vt 0.773881 0.638535
vt 0.737399 0.675147
vt 0.739047 0.679148
vt 0.452042 0.831238
vt 0.556892 0.064075
vt 0.765880 0.940284
vt 0.514752 0.019399
vt 0.409673 0.012103
vt 0.334552 0.006401
vt 0.314236 0.815987
vt 0.624478 0.873901
vt 0.619699 0.890912
vt 0.557402 0.828760
vt 0.572503 0.822047
vt 0.572503 0.748629
vt 0.557402 0.740761
vt 0.661356 0.873806
vt 0.662695 0.891298
vt 0.503016 0.801302
vt 0.502481 0.699088
vt 0.502481 0.889721
vt 0.821226 0.568791
vt 0.262882 0.876133
vt 0.813277 0.216160
vt 0.825626 0.216438
vt 0.456175 0.849629
vt 0.923589 0.604991
vt 0.924161 0.199111
vt 0.924705 0.109176
vt 0.924161 0.005210
vt 0.452042 0.898926
vt 0.465524 0.900705
vt 0.817162 0.617170
vt 0.828169 0.622625
vt 0.305956 0.815892
vt 0.493630 0.901397
vt 0.864700 0.626084
vt 0.587434 0.023724
vt 0.301723 0.887437
vt 0.294880 0.883203
vt 0.767237 0.947532
vt 0.339149 0.000000
vt 0.412284 0.005558
vt 0.514957 0.012562
s 1
usemtl Material.001
f 125/1/1 8/2/2 113/3/3 133/4/4
f 106/5/5 102/6/6 65/7/7 98/8/8
f 3/9/9 5/10/10 39/11/11 36/12/12
f 37/13/13 36/12/12 39/11/11 40/14/14
f 35/15/15 37/13/13 40/14/14 38/16/16
f 119/17/17 37/18/13 35/19/15 120/20/18
f 121/21/19 36/22/12 37/18/13 119/17/17
f 117/23/20 3/24/9 36/25/12 121/26/19
f 134/27/21 122/28/22 4/29/23 118/30/24
f 115/31/25 42/32/26 41/33/27 116/34/28
f 7/35/29 43/36/30 114/37/31 112/38/32
f 122/39/22 124/40/33 6/41/34 4/42/23
f 43/43/30 42/32/26 115/31/25 114/44/31
f 41/33/27 42/32/26 46/45/35 44/46/36
f 125/47/1 41/48/27 44/49/36 126/50/37
f 43/51/30 7/52/29 9/53/38 45/54/39
f 43/51/30 45/54/39 46/55/35 42/56/26
f 22/57/40 12/58/41 52/59/42 66/60/43
f 82/61/44 67/62/45 51/63/46 50/64/47
f 66/65/43 52/66/42 51/63/46 67/62/45
f 21/67/48 13/68/49 68/69/50 63/70/51
f 81/71/52 64/72/53 54/73/54 55/74/55
f 63/75/51 68/76/50 54/73/54 64/72/53
f 50/77/47 53/78/56 14/79/57 100/80/58
f 81/71/52 55/74/55 79/81/59
f 58/82/60 69/83/61 23/84/62 16/85/63
f 83/86/64 75/87/65 59/88/66 80/89/67
f 74/90/68 58/91/60 57/92/69 77/93/70
f 75/87/65 77/93/70 57/92/69 59/88/66
f 76/94/71 56/95/72 18/96/73 24/97/74
f 58/98/60 16/99/63 15/100/75 57/101/69
f 59/102/66 57/103/69 15/104/75 17/105/76
f 80/106/67 59/107/66 17/108/76 25/109/77
f 111/110/78 61/111/79 62/112/80 109/113/81
f 132/114/82 110/115/83 60/116/84 127/117/85
f 111/118/78 107/119/86 19/120/87 61/121/79
f 110/122/83 109/113/81 62/112/80 60/123/84
f 52/66/42 63/75/51 64/72/53 51/63/46
f 50/64/47 51/63/46 64/72/53 81/71/52
f 12/58/41 21/124/48 63/125/51 52/59/42
f 103/126/88 66/65/43 67/62/45 104/127/89
f 105/128/90 104/127/89 67/62/45 82/61/44
f 101/129/91 22/57/40 66/60/43 103/130/88
f 13/68/49 70/131/92 71/132/93 68/69/50
f 74/90/68 69/133/61 58/91/60
f 13/68/49 23/134/62 73/135/94 70/131/92
f 74/90/68 71/136/93 72/137/95 69/133/61
f 69/138/61 72/139/95 73/140/94 23/141/62
f 68/76/50 71/136/93 74/90/68
f 53/78/56 76/94/71 24/97/74 14/79/57
f 55/74/55 54/73/54 77/93/70 75/87/65
f 68/76/50 74/90/68 77/93/70 54/73/54
f 79/81/59 55/74/55 75/87/65 83/86/64
f 53/142/56 79/81/59 83/86/64 76/143/71
f 56/144/72 80/106/67 25/109/77 18/145/73
f 76/143/71 83/86/64 80/89/67 56/146/72
f 50/64/47 81/71/52 79/81/59 53/142/56
f 65/147/7 82/61/44 50/64/47
f 44/46/36 46/45/35 84/148/96 86/149/97
f 45/54/39 9/53/38 27/150/98 85/151/99
f 126/152/37 44/153/36 86/154/97 128/155/100
f 45/156/39 85/157/99 84/148/96 46/45/35
f 136/158/101 138/159/102 89/160/103 87/161/104
f 136/158/101 87/161/104 88/162/105 137/163/106
f 127/164/85 60/165/84 89/166/103 129/167/107
f 137/163/106 88/162/105 28/168/108 135/169/109
f 138/159/102 140/170/110 129/171/107 89/160/103
f 60/165/84 62/172/80 87/173/104 89/166/103
f 62/172/80 61/174/79 88/175/105 87/173/104
f 86/149/97 84/148/96 90/176/111 91/177/112
f 85/178/99 27/179/98 30/180/113 92/181/114
f 128/155/100 86/154/97 91/182/112 130/183/115
f 85/157/99 92/184/114 90/176/111 84/148/96
f 34/185/116 33/186/117 94/187/118 93/188/119
f 123/189/120 2/190/121 96/191/122 131/192/123
f 1/193/124 34/185/116 93/188/119 97/194/125
f 33/186/117 32/195/126 95/196/127 94/187/118
f 61/174/79 19/197/87 28/198/108 88/175/105
f 65/7/7 50/199/47 100/200/58 98/8/8
f 102/201/6 105/128/90 82/61/44 65/147/7
f 11/202/128 101/129/91 103/130/88 49/203/129
f 78/204/130 48/205/131 104/127/89 105/128/90
f 49/206/129 103/126/88 104/127/89 48/205/131
f 99/207/132 47/208/133 102/6/6 106/5/5
f 91/209/112 90/210/111 109/211/81 110/212/83
f 92/213/114 30/214/113 107/215/86 111/216/78
f 130/217/115 91/209/112 110/212/83 132/218/82
f 92/213/114 111/216/78 109/211/81 90/210/111
f 40/219/14 115/31/25 116/34/28 38/220/16
f 40/219/14 39/221/11 114/44/31 115/31/25
f 124/222/33 133/4/4 113/3/3 6/223/34
f 39/224/11 5/225/10 112/38/32 114/37/31
f 70/131/92 73/135/94 72/226/95 71/132/93
f 123/227/120 134/27/21 118/30/24 2/228/121
f 1/229/124 117/23/20 121/26/19 34/230/116
f 34/231/116 121/21/19 119/17/17 33/232/117
f 33/232/117 119/17/17 120/20/18 32/233/126
f 32/234/126 120/235/18 134/27/21 123/227/120
f 38/236/16 116/237/28 133/4/4 124/222/33
f 31/238/134 130/217/115 132/218/82 108/239/135
f 32/195/126 123/189/120 131/192/123 95/196/127
f 26/240/136 128/155/100 130/183/115 31/241/134
f 139/242/137 140/243/110 47/208/133 99/207/132
f 20/244/138 127/164/85 129/167/107 29/245/139
f 10/246/140 126/152/37 128/155/100 26/240/136
f 108/247/135 132/114/82 127/117/85 20/248/138
f 8/249/2 125/47/1 126/50/37 10/250/140
f 35/15/15 38/16/16 124/40/33 122/39/22
f 120/235/18 35/251/15 122/28/22 134/27/21
f 41/252/27 125/1/1 133/4/4 116/237/28
f 47/253/133 78/204/130 105/128/90 102/201/6
f 29/254/139 129/171/107 140/170/110 139/255/137
f 78/256/130 47/208/133 140/243/110 138/257/102
f 49/203/129 137/258/106 135/259/109 11/202/128
f 48/205/131 136/260/101 137/261/106 49/206/129
f 48/205/131 78/204/130 138/262/102 136/260/101
f 221/263/141 229/264/142 113/3/3 8/2/2
f 106/5/5 98/8/8 174/265/143 205/266/144
f 3/9/9 145/267/145 148/268/146 5/10/10
f 146/269/147 149/270/148 148/268/146 145/267/145
f 144/271/149 147/272/150 149/270/148 146/269/147
f 215/273/151 216/274/152 144/275/149 146/276/147
f 217/277/153 215/273/151 146/276/147 145/278/145
f 117/23/20 217/279/153 145/280/145 3/24/9
f 230/281/154 118/30/24 4/29/23 218/282/155
f 213/283/156 214/284/157 150/285/158 151/286/159
f 7/35/29 112/38/32 212/287/160 152/288/161
f 218/289/155 4/42/23 6/41/34 220/290/162
f 152/291/161 212/292/160 213/283/156 151/286/159
f 150/293/158 153/294/163 155/295/164 151/296/159
f 221/297/141 222/298/165 153/294/163 150/293/158
f 152/299/161 154/300/166 9/53/38 7/52/29
f 152/299/161 151/296/159 155/295/164 154/300/166
f 22/57/40 175/301/167 161/302/168 12/58/41
f 191/303/169 159/304/170 160/305/171 176/306/172
f 175/307/167 176/306/172 160/305/171 161/308/168
f 21/67/48 172/309/173 177/310/174 13/68/49
f 190/311/175 164/312/176 163/313/177 173/314/178
f 172/315/173 173/314/178 163/313/177 177/316/174
f 159/317/170 100/80/58 14/79/57 162/318/179
f 190/311/175 188/319/180 164/312/176
f 167/320/181 16/85/63 23/84/62 178/321/182
f 192/322/183 189/323/184 168/324/185 184/325/186
f 183/326/187 186/327/188 166/328/189 167/329/181
f 184/325/186 168/324/185 166/328/189 186/327/188
f 185/330/190 24/97/74 18/96/73 165/331/191
f 167/332/181 166/333/189 15/100/75 16/99/63
f 168/334/185 17/105/76 15/104/75 166/335/189
f 189/336/184 25/109/77 17/108/76 168/337/185
f 211/338/192 209/339/193 171/340/194 170/341/195
f 228/342/196 223/343/197 169/344/198 210/345/199
f 211/346/192 170/347/195 19/120/87 107/119/86
f 210/348/199 169/349/198 171/340/194 209/339/193
f 161/308/168 160/305/171 173/314/178 172/315/173
f 159/304/170 190/311/175 173/314/178 160/305/171
f 12/58/41 161/302/168 172/350/173 21/124/48
f 206/351/200 207/352/201 176/306/172 175/307/167
f 208/353/202 191/303/169 176/306/172 207/352/201
f 101/129/91 206/354/200 175/301/167 22/57/40
f 13/68/49 177/310/174 180/355/203 179/356/204
f 183/326/187 167/329/181 178/357/182
f 13/358/49 179/359/204 182/360/205 23/361/62
f 183/326/187 178/357/182 181/362/206 180/363/203
f 178/364/182 23/365/62 182/366/205 181/367/206
f 177/316/174 183/326/187 180/363/203
f 162/318/179 14/79/57 24/97/74 185/330/190
f 164/312/176 184/325/186 186/327/188 163/313/177
f 177/316/174 163/313/177 186/327/188 183/326/187
f 188/319/180 192/322/183 184/325/186 164/312/176
f 162/368/179 185/369/190 192/322/183 188/319/180
f 165/370/191 18/145/73 25/109/77 189/336/184
f 185/369/190 165/371/191 189/323/184 192/322/183
f 159/304/170 162/368/179 188/319/180 190/311/175
f 174/372/143 159/304/170 191/303/169
f 153/373/163 195/374/207 193/375/208 155/376/164
f 154/377/166 194/378/209 27/179/98 9/379/38
f 222/380/165 224/381/210 195/382/207 153/383/163
f 154/384/166 155/376/164 193/375/208 194/385/209
f 231/386/211 196/387/212 198/388/213 233/389/214
f 231/386/211 232/390/215 197/391/216 196/387/212
f 223/392/197 225/393/217 198/394/213 169/395/198
f 232/390/215 135/169/109 28/168/108 197/391/216
f 233/389/214 198/388/213 225/396/217 234/397/218
f 169/395/198 198/394/213 196/398/212 171/399/194
f 171/399/194 196/398/212 197/400/216 170/401/195
f 195/374/207 200/402/219 199/403/220 193/375/208
f 194/378/209 201/404/221 30/180/113 27/179/98
f 224/381/210 226/405/222 200/406/219 195/382/207
f 194/385/209 193/375/208 199/403/220 201/407/221
f 143/408/223 202/409/224 203/410/225 142/411/226
f 219/412/227 227/413/228 96/191/122 2/190/121
f 1/193/124 97/194/125 202/409/224 143/408/223
f 142/411/226 203/410/225 204/414/229 141/415/230
f 170/401/195 197/400/216 28/198/108 19/197/87
f 174/265/143 98/8/8 100/200/58 159/416/170
f 205/417/144 174/372/143 191/303/169 208/353/202
f 11/202/128 158/418/231 206/354/200 101/129/91
f 187/419/232 208/353/202 207/352/201 157/420/233
f 158/421/231 157/420/233 207/352/201 206/351/200
f 99/207/132 106/5/5 205/266/144 156/422/234
f 200/423/219 210/424/199 209/425/193 199/426/220
f 201/427/221 211/428/192 107/215/86 30/214/113
f 226/429/222 228/430/196 210/424/199 200/423/219
f 201/427/221 199/426/220 209/425/193 211/428/192
f 149/431/148 147/432/150 214/284/157 213/283/156
f 149/431/148 213/283/156 212/292/160 148/433/146
f 220/434/162 6/223/34 113/3/3 229/264/142
f 148/435/146 212/287/160 112/38/32 5/225/10
f 179/356/204 180/355/203 181/436/206 182/437/205
f 219/438/227 2/228/121 118/30/24 230/281/154
f 1/229/124 143/439/223 217/279/153 117/23/20
f 143/440/223 142/441/226 215/273/151 217/277/153
f 142/441/226 141/442/230 216/274/152 215/273/151
f 141/443/230 219/438/227 230/281/154 216/444/152
f 147/445/150 220/434/162 229/264/142 214/446/157
f 31/238/134 108/239/135 228/430/196 226/429/222
f 141/415/230 204/414/229 227/413/228 219/412/227
f 26/240/136 31/241/134 226/405/222 224/381/210
f 139/242/137 99/207/132 156/422/234 234/447/218
f 20/244/138 29/245/139 225/393/217 223/392/197
f 10/246/140 26/240/136 224/381/210 222/380/165
f 108/247/135 20/248/138 223/343/197 228/342/196
f 8/249/2 10/250/140 222/298/165 221/297/141
f 144/271/149 218/289/155 220/290/162 147/272/150
f 216/444/152 230/281/154 218/282/155 144/448/149
f 150/449/158 214/446/157 229/264/142 221/263/141
f 156/450/234 205/417/144 208/353/202 187/419/232
f 29/254/139 139/255/137 234/397/218 225/396/217
f 187/451/232 233/452/214 234/447/218 156/422/234
f 158/418/231 11/202/128 135/259/109 232/453/215
f 157/420/233 158/421/231 232/454/215 231/455/211
f 157/420/233 231/455/211 233/456/214 187/419/232
f 94/187/118 95/196/127 131/192/123 96/191/122 227/413/228 204/414/229 203/410/225 202/409/224 97/194/125 93/188/119
